<svg xmlns="http://www.w3.org/2000/svg" version="1.0" width="1024px" height="1024px" viewBox="0 0 10240 10240" preserveAspectRatio="xMidYMid meet"  xmlns:xlink="http://www.w3.org/1999/xlink"><rect id="svgEditorBackground" x="0" y="0" width="10240" height="10240" style="fill: none; stroke: none;"/>
<g id="layer1" fill="#fffeff" stroke="none">
 <path d="M5030 7910 c-19 -19 -20 -33 -20 -465 0 -522 -8 -485 110 -485 118 0 110 -37 110 485 0 522 8 485 -110 485 -57 0 -74 -4 -90 -20z"/>
 <path d="M6245 5836 c-734 -313 -1127 -475 -1160 -479 -61 -8 -118 -46 -160 -106 -28 -39 -30 -49 -30 -126 0 -77 2 -87 30 -126 17 -24 50 -57 74 -74 40 -28 48 -30 144 -31 95 -2 163 -16 986 -208 485 -113 896 -206 912 -206 48 0 96 51 109 117 14 66 7 114 -23 148 -20 22 -106 44 -847 216 -454 105 -827 193 -829 195 -2 2 -2 6 0 7 2 2 452 194 999 427 547 232 1012 431 1032 441 67 34 86 113 49 195 -27 60 -63 84 -125 83 -44 0 -196 -62 -1161 -473z"/>
 <path d="M2370 5210 c-16 -16 -20 -33 -20 -90 0 -118 -37 -110 485 -110 522 0 485 -8 485 110 0 118 37 110 -485 110 -432 0 -446 -1 -465 -20z"/>
 <path d="M6950 5210 c-16 -16 -20 -33 -20 -90 0 -118 -37 -110 485 -110 522 0 485 -8 485 110 0 118 37 110 -485 110 -432 0 -446 -1 -465 -20z"/>
 <path d="M5030 3280 c-19 -19 -20 -33 -20 -465 0 -522 -8 -485 110 -485 118 0 110 -37 110 485 0 522 8 485 -110 485 -57 0 -74 -4 -90 -20z"/>
 </g>
<g id="layer2" fill="#f1c40f" stroke="none">
 <path d="M4830 8488 c-148 -12 -392 -54 -545 -93 -471 -120 -885 -327 -1278 -637 -138 -109 -432 -407 -541 -548 -384 -498 -607 -1037 -693 -1676 -24 -181 -24 -637 0 -818 86 -639 308 -1176 693 -1676 114 -148 426 -460 574 -574 500 -385 1037 -607 1676 -693 181 -24 637 -24 818 0 639 86 1178 309 1676 693 63 49 194 168 291 264 177 176 282 299 401 472 797 1151 797 2695 0 3846 -157 228 -401 496 -605 665 -626 519 -1389 792 -2195 786 -92 -1 -214 -6 -272 -11z m660 -433 c1119 -141 2033 -880 2425 -1960 110 -306 175 -727 162 -1060 -22 -560 -189 -1086 -486 -1530 -205 -308 -416 -532 -706 -750 -647 -486 -1505 -685 -2305 -534 -1170 221 -2103 1134 -2345 2296 -207 989 107 2022 826 2719 493 478 1078 750 1784 829 158 17 463 13 645 -10z"/>
 </g>
<g id="layer3" fill="#9b59b6" stroke="none">
 <path d="M4720 10049 c-1423 -123 -2700 -827 -3545 -1954 -566 -754 -894 -1622 -975 -2580 -13 -155 -13 -625 0 -780 54 -636 215 -1226 485 -1780 641 -1313 1834 -2277 3247 -2624 414 -102 743 -141 1193 -141 450 0 779 39 1193 141 1770 435 3166 1831 3601 3601 102 413 141 743 141 1191 0 252 -1 268 -18 265 -10 -2 -518 -519 -1129 -1150 -612 -630 -1116 -1148 -1120 -1150 -5 -1 -37 -39 -72 -83 -98 -122 -402 -419 -531 -519 -498 -384 -1038 -607 -1676 -693 -179 -24 -599 -24 -778 0 -638 86 -1176 308 -1676 693 -148 114 -460 426 -574 574 -385 500 -607 1038 -693 1676 -24 179 -24 599 0 778 87 647 323 1211 713 1700 103 130 313 347 433 449 47 40 103 90 125 113 23 22 367 335 766 695 1554 1402 1720 1553 1717 1563 -2 6 -30 14 -63 17 -84 10 -651 8 -764 -2z"/>
 <path d="M7405 6310 c-8 -12 20 -24 35 -15 6 3 8 11 5 16 -8 12 -32 12 -40 -1z"/>
 <path d="M7466 6292 c-3 -6 1 -15 8 -21 8 -7 17 -8 20 -3 3 6 -1 15 -8 21 -8 7 -17 8 -20 3z"/>
 <path d="M7534 6166 c-8 -21 3 -49 16 -41 5 3 10 15 10 25 0 25 -18 36 -26 16z"/>
 <path d="M5055 5351 c-7 -12 12 -24 25 -16 11 7 4 25 -10 25 -5 0 -11 -4 -15 -9z"/>
 <path d="M4970 5304 c-44 -40 -65 -70 -53 -77 5 -3 32 19 61 48 60 61 54 85 -8 29z"/>
 <path d="M4895 5190 c-4 -6 -3 -16 3 -22 6 -6 12 -6 17 2 4 6 3 16 -3 22 -6 6 -12 6 -17 -2z"/>
 <path d="M5413 5173 c-7 -3 -13 -11 -13 -18 0 -15 41 -28 53 -16 10 10 -25 40 -40 34z"/>
 <path d="M5515 5131 c-6 -11 1 -16 37 -25 25 -6 48 7 31 17 -20 11 -62 16 -68 8z"/>
 <path d="M5685 5091 c-6 -11 1 -16 37 -25 25 -6 48 7 31 17 -20 11 -62 16 -68 8z"/>
 <path d="M4895 5080 c-4 -6 -3 -16 3 -22 6 -6 12 -6 17 2 4 6 3 16 -3 22 -6 6 -12 6 -17 -2z"/>
 <path d="M5815 5061 c-6 -11 1 -16 37 -25 25 -6 48 7 31 17 -20 11 -62 16 -68 8z"/>
 <path d="M5945 5031 c-6 -11 1 -16 37 -25 25 -6 48 7 31 17 -20 11 -62 16 -68 8z"/>
 <path d="M4915 5021 c-6 -11 57 -86 86 -102 37 -19 25 8 -26 59 -30 29 -56 48 -60 43z"/>
 <path d="M6075 5001 c-6 -11 1 -16 37 -25 25 -6 48 7 31 17 -20 11 -62 16 -68 8z"/>
 <path d="M6245 4961 c-6 -11 1 -16 37 -25 25 -6 48 7 31 17 -20 11 -62 16 -68 8z"/>
 <path d="M6375 4931 c-6 -11 1 -16 37 -25 25 -6 48 7 31 17 -20 11 -62 16 -68 8z"/>
 <path d="M5055 4911 c-7 -12 12 -24 25 -16 11 7 4 25 -10 25 -5 0 -11 -4 -15 -9z"/>
 <path d="M5165 4911 c-7 -12 12 -24 25 -16 11 7 4 25 -10 25 -5 0 -11 -4 -15 -9z"/>
 <path d="M5215 4911 c-6 -11 1 -16 37 -25 25 -6 48 7 31 17 -20 11 -62 16 -68 8z"/>
 <path d="M6505 4901 c-6 -11 1 -16 37 -25 25 -6 48 7 31 17 -20 11 -62 16 -68 8z"/>
 <path d="M5345 4881 c-6 -11 1 -16 37 -25 25 -6 48 7 31 17 -20 11 -62 16 -68 8z"/>
 <path d="M6675 4861 c-6 -11 1 -16 37 -25 25 -6 48 7 31 17 -20 11 -62 16 -68 8z"/>
 <path d="M5515 4841 c-6 -11 1 -16 37 -25 25 -6 48 7 31 17 -20 11 -62 16 -68 8z"/>
 <path d="M6805 4831 c-6 -11 1 -16 37 -25 25 -6 48 7 31 17 -20 11 -62 16 -68 8z"/>
 <path d="M5645 4811 c-6 -11 1 -16 37 -25 25 -6 48 7 31 17 -20 11 -62 16 -68 8z"/>
 <path d="M6935 4801 c-6 -11 1 -16 37 -25 25 -6 48 7 31 17 -20 11 -62 16 -68 8z"/>
 <path d="M5775 4781 c-6 -11 1 -16 37 -25 25 -6 48 7 31 17 -20 11 -62 16 -68 8z"/>
 <path d="M7097 4762 c-8 -11 44 -93 54 -86 16 10 9 39 -16 67 -28 29 -31 31 -38 19z"/>
 <path d="M5945 4741 c-6 -11 1 -16 37 -25 25 -6 48 7 31 17 -20 11 -62 16 -68 8z"/>
 <path d="M6075 4711 c-6 -11 1 -16 37 -25 25 -6 48 7 31 17 -20 11 -62 16 -68 8z"/>
 <path d="M6205 4681 c-6 -11 1 -16 37 -25 25 -6 48 7 31 17 -20 11 -62 16 -68 8z"/>
 <path d="M6335 4651 c-6 -11 1 -16 37 -25 25 -6 48 7 31 17 -20 11 -62 16 -68 8z"/>
 <path d="M7135 4630 c-4 -6 -3 -16 3 -22 6 -6 12 -6 17 2 4 6 3 16 -3 22 -6 6 -12 6 -17 -2z"/>
 <path d="M6505 4611 c-6 -11 1 -16 37 -25 25 -6 48 7 31 17 -20 11 -62 16 -68 8z"/>
 <path d="M6635 4581 c-6 -11 1 -16 37 -25 25 -6 48 7 31 17 -20 11 -62 16 -68 8z"/>
 <path d="M6765 4551 c-6 -11 1 -16 37 -25 25 -6 48 7 31 17 -20 11 -62 16 -68 8z"/>
 <path d="M6935 4511 c-6 -11 1 -16 37 -25 25 -6 48 7 31 17 -20 11 -62 16 -68 8z"/>
 </g>
<g id="layer4" fill="#77378c" stroke="none">
 
 <path d="M5070 9628 c-256 -231 -817 -738 -1247 -1126 -430 -388 -784 -711 -787 -718 -13 -33 20 -18 130 60 521 367 1089 576 1707 626 745 60 1527 -153 2155 -588 228 -157 496 -401 665 -605 453 -546 720 -1199 777 -1900 52 -642 -104 -1333 -428 -1902 -47 -81 -137 -223 -211 -329 -40 -57 -45 -81 -15 -69 8 3 439 443 956 977 518 534 1020 1051 1115 1148 l174 177 -11 128 c-43 520 -149 977 -337 1453 -492 1247 -1506 2261 -2753 2753 -452 178 -865 278 -1380 332 l-45 4 -465 -421z"/>
 <path d="M4825 8085 c-551 -62 -1026 -241 -1445 -544 -806 -583 -1260 -1513 -1227 -2511 19 -569 178 -1079 478 -1534 681 -1037 1890 -1533 3117 -1281 589 122 1123 420 1543 862 314 331 564 767 689 1203 171 593 154 1286 -45 1835 -392 1080 -1304 1818 -2425 1960 -179 23 -524 28 -685 10z m365 -195 c19 -19 20 -33 20 -445 0 -412 -1 -426 -20 -445 -15 -15 -33 -20 -70 -20 -37 0 -55 5 -70 20 -19 19 -20 33 -20 445 0 412 1 426 20 445 15 15 33 20 70 20 37 0 55 -5 70 -20z m2291 -1631 c10 -13 23 -35 30 -49 6 -14 16 -33 21 -43 6 -13 3 -29 -14 -58 -23 -41 -51 -60 -143 -99 -27 -12 -66 -28 -85 -36 -19 -9 -46 -20 -60 -26 -52 -21 -86 -36 -110 -46 -14 -6 -47 -20 -75 -32 -27 -12 -59 -25 -70 -30 -44 -19 -182 -78 -270 -115 -16 -7 -41 -17 -55 -23 -39 -17 -91 -39 -145 -62 -27 -12 -59 -25 -70 -30 -22 -10 -105 -45 -200 -85 -16 -7 -41 -17 -55 -23 -14 -6 -47 -20 -75 -32 -27 -12 -59 -25 -70 -30 -11 -5 -42 -18 -70 -30 -27 -12 -59 -25 -70 -30 -18 -8 -60 -25 -120 -50 -11 -5 -36 -15 -55 -24 -19 -8 -57 -24 -85 -36 -27 -12 -59 -25 -70 -30 -82 -37 -115 -50 -123 -50 -5 0 -17 -9 -27 -20 -17 -19 -17 -20 11 -30 16 -6 49 -15 74 -20 25 -5 72 -15 105 -24 33 -8 89 -21 125 -30 62 -14 120 -27 260 -59 36 -9 106 -25 155 -37 83 -20 117 -28 280 -65 33 -7 101 -23 150 -35 50 -12 117 -27 150 -35 324 -73 368 -85 392 -114 39 -45 25 -130 -30 -188 -35 -37 -58 -40 -133 -19 -27 8 -80 22 -119 30 -76 17 -178 40 -265 61 -54 12 -179 41 -310 71 -119 28 -194 45 -250 59 -52 12 -164 38 -310 72 -36 8 -90 20 -120 28 -87 20 -240 55 -305 70 -34 7 -89 11 -125 8 -77 -6 -125 11 -175 62 -87 86 -87 214 0 301 40 40 71 54 141 64 44 7 72 17 169 60 17 8 66 29 143 61 12 5 32 13 45 18 69 30 124 53 142 61 44 19 182 78 270 115 17 7 41 17 55 23 39 17 91 39 145 62 28 12 59 25 70 30 22 10 105 45 200 85 17 7 41 17 55 23 14 6 48 20 75 32 28 12 59 25 70 30 11 5 43 18 70 30 28 12 66 28 85 36 74 32 86 37 105 45 30 12 117 49 140 59 11 5 43 18 70 30 28 12 59 25 70 30 11 5 43 18 70 30 28 12 59 25 70 30 11 4 38 15 60 24 22 10 47 21 55 26 8 6 37 8 64 6 37 -2 53 -9 67 -27z m-4201 -1069 c15 -15 20 -33 20 -70 0 -37 -5 -55 -20 -70 -19 -19 -33 -20 -445 -20 -412 0 -426 1 -445 20 -15 15 -20 33 -20 70 0 37 5 55 20 70 19 19 33 20 445 20 412 0 426 -1 445 -20z m4580 0 c15 -15 20 -33 20 -70 0 -37 -5 -55 -20 -70 -19 -19 -33 -20 -445 -20 -412 0 -426 1 -445 20 -15 15 -20 33 -20 70 0 37 5 55 20 70 19 19 33 20 445 20 412 0 426 -1 445 -20z m-2670 -1930 c19 -19 20 -33 20 -445 0 -412 -1 -426 -20 -445 -15 -15 -33 -20 -70 -20 -37 0 -55 5 -70 20 -19 19 -20 33 -20 445 0 412 1 426 20 445 15 15 33 20 70 20 37 0 55 -5 70 -20z"/>
 </g>

</svg>